<?xml version="1.0" standalone="no"?>
<!DOCTYPE svg PUBLIC "-//W3C//DTD SVG 20010904//EN"
 "http://www.w3.org/TR/2001/REC-SVG-20010904/DTD/svg10.dtd">
<svg version="1.0" xmlns="http://www.w3.org/2000/svg"
 width="354.000000pt" height="354.000000pt" viewBox="0 0 354.000000 354.000000"
 preserveAspectRatio="xMidYMid meet">
<metadata>
Created by potrace 1.14, written by Peter Selinger 2001-2017
</metadata>
<g transform="translate(0.000000,354.000000) scale(0.100000,-0.100000)"
fill="#000000" stroke="none">
<path d="M0 1770 l0 -1770 1770 0 1770 0 0 1246 c0 1099 -2 1245 -15 1240 -82
-31 -189 -58 -193 -48 -5 17 -16 15 -42 -8 -26 -22 -60 -26 -78 -8 -9 9 -12 9
-12 -3 0 -11 -10 -16 -32 -17 -29 -1 -31 1 -16 12 19 14 5 38 -17 30 -7 -3
-16 0 -20 6 -5 8 -11 8 -21 -1 -8 -6 -14 -7 -14 -3 0 5 9 15 20 22 29 18 24
32 -10 27 -16 -2 -30 0 -30 5 0 5 -9 8 -20 7 -21 -1 -46 -52 -29 -62 12 -8 31
4 24 16 -4 5 -1 9 4 9 15 0 14 -5 -12 -43 -12 -18 -28 -32 -34 -30 -6 2 -14
-1 -18 -6 -3 -6 0 -11 8 -11 19 0 87 -151 120 -265 28 -94 51 -262 41 -289 -3
-9 -1 -16 4 -16 6 0 10 -18 9 -42 l-2 -42 -218 2 c-119 0 -221 3 -226 6 -5 3
-9 29 -9 58 -1 128 -63 310 -148 440 -79 120 -217 244 -344 311 -175 91 -417
124 -610 82 -181 -39 -323 -117 -450 -245 -115 -117 -129 -134 -176 -231 -64
-128 -94 -241 -107 -394 l-2 -30 -225 1 -225 0 3 70 c10 261 102 520 261 738
153 211 421 410 650 485 74 24 74 24 66 11 -3 -5 1 -10 10 -10 11 0 15 5 11
15 -3 8 -4 15 -2 15 2 0 47 9 100 20 53 11 139 23 191 26 52 4 95 10 95 14 0
4 -10 27 -23 51 -35 67 -69 169 -64 190 3 10 1 17 -4 13 -5 -3 -9 2 -9 11 0 8
-6 24 -12 35 -11 17 -10 22 2 30 13 8 13 10 -1 10 -17 0 -21 43 -6 66 4 7 -2
14 -16 18 -12 3 -392 6 -844 6 l-823 0 0 -1770z m3080 634 c0 -8 -7 -14 -15
-14 -15 0 -21 21 -9 33 10 9 24 -2 24 -19z m38 -1 c-6 -7 -12 -13 -13 -13 -2
0 -5 6 -8 13 -3 7 3 13 14 13 13 0 15 -3 7 -13z m-1198 -445 c0 -9 3 -9 12 0
7 7 20 12 31 12 14 0 17 -5 12 -20 -8 -26 -9 -186 0 -200 3 -5 3 -15 -1 -22
-4 -6 -6 -40 -5 -75 1 -34 0 -63 -3 -63 -2 0 -17 5 -31 10 -20 8 -26 7 -23 -2
3 -7 18 -14 34 -16 28 -3 29 -5 30 -57 0 -30 3 -57 6 -60 3 -3 34 -6 69 -6 35
-1 67 -5 70 -10 3 -5 26 -6 55 0 27 4 147 9 267 10 l217 2 0 -210 -1 -209 -66
0 c-37 0 -62 3 -55 7 15 9 3 51 -15 51 -11 0 -14 -8 -11 -29 l4 -30 -187 -1
c-122 0 -190 4 -194 10 -4 7 -11 7 -18 2 -7 -5 -39 -10 -71 -11 -33 -1 -63 -4
-67 -7 -5 -2 -7 -125 -6 -272 l2 -267 -197 -3 c-174 -2 -198 0 -198 13 0 9 -7
18 -15 21 -13 5 -15 44 -15 260 l0 254 -110 0 c-81 0 -110 3 -111 13 0 9 -2
10 -6 0 -3 -10 -55 -13 -209 -13 l-204 0 0 209 0 208 109 2 c60 1 112 -3 115
-8 4 -5 20 -5 42 2 22 7 38 7 42 1 8 -11 22 -15 80 -21 23 -3 42 -9 42 -12 0
-4 23 -7 51 -7 37 0 55 -5 64 -17 17 -23 22 -22 39 11 13 23 15 24 16 7 0 -11
9 -26 21 -33 12 -8 18 -19 15 -28 -4 -11 3 -13 34 -11 43 4 61 -15 32 -32 -14
-9 -13 -10 11 -11 20 0 27 5 27 20 0 20 27 40 46 33 28 -10 18 25 -13 47 -18
14 -49 37 -68 51 l-34 26 37 11 c20 6 53 14 74 17 47 7 92 61 75 91 -19 36
-48 46 -40 14 4 -14 0 -20 -11 -20 -9 0 -16 -7 -16 -15 0 -27 -17 -15 -24 16
-4 23 -2 35 10 44 14 10 12 13 -17 26 -19 7 -42 20 -52 29 -9 8 -27 17 -40 20
-21 6 -22 11 -25 133 l-3 127 186 0 c137 0 185 -3 185 -12z m-443 -522 c-6
-17 -44 -19 -50 -2 -4 10 -1 13 9 9 7 -3 14 0 14 6 0 6 7 8 15 4 9 -3 14 -11
12 -17z m43 14 c0 -5 -7 -10 -16 -10 -8 0 -12 5 -9 10 3 6 10 10 16 10 5 0 9
-4 9 -10z m60 0 c0 -5 -2 -10 -4 -10 -3 0 -8 5 -11 10 -3 6 -1 10 4 10 6 0 11
-4 11 -10z m40 -30 c0 -5 -5 -10 -11 -10 -5 0 -7 5 -4 10 3 6 8 10 11 10 2 0
4 -4 4 -10z"/>
<path d="M1845 1950 c-4 -6 -3 -16 3 -22 6 -6 12 -6 17 2 4 6 3 16 -3 22 -6 6
-12 6 -17 -2z"/>
<path d="M1920 1930 c0 -5 5 -10 10 -10 6 0 10 5 10 10 0 6 -4 10 -10 10 -5 0
-10 -4 -10 -10z"/>
<path d="M1870 1775 c0 -8 5 -15 10 -15 6 0 10 7 10 15 0 8 -4 15 -10 15 -5 0
-10 -7 -10 -15z"/>
<path d="M2270 1432 c0 -14 19 -26 48 -30 16 -2 22 2 22 18 0 22 -7 25 -30 10
-9 -5 -19 -5 -27 2 -9 7 -13 7 -13 0z"/>
<path d="M2465 1419 c-4 -6 -5 -12 -2 -15 2 -3 7 2 10 11 7 17 1 20 -8 4z"/>
<path d="M2343 1394 l-22 -24 26 0 c35 0 21 -13 -17 -15 -24 -1 -30 2 -30 19
-1 21 -1 21 -15 2 -21 -28 -19 -33 13 -34 15 0 32 -2 37 -3 6 -2 20 2 32 9 15
9 21 20 19 39 -4 35 -16 37 -43 7z"/>
<path d="M1752 1402 c-13 -2 -21 -9 -19 -15 5 -15 46 -22 59 -9 13 13 -12 29
-40 24z"/>
<path d="M1865 1400 c-3 -5 1 -10 9 -10 9 0 16 5 16 10 0 6 -4 10 -9 10 -6 0
-13 -4 -16 -10z"/>
<path d="M2060 1399 c0 -5 5 -7 10 -4 6 3 10 8 10 11 0 2 -4 4 -10 4 -5 0 -10
-5 -10 -11z"/>
<path d="M2427 1396 c-4 -9 -11 -14 -17 -11 -6 4 -10 -5 -10 -19 0 -30 11 -33
32 -8 10 10 13 24 9 36 -7 18 -8 18 -14 2z"/>
<path d="M2542 1330 c-7 -12 -17 -18 -23 -14 -7 4 -9 -1 -5 -14 8 -24 -4 -34
-24 -21 -13 7 -13 9 -1 9 11 0 10 5 -4 20 -21 23 -48 26 -64 7 -17 -22 0 -29
27 -11 24 16 25 16 18 -10 -3 -14 -2 -26 3 -26 5 0 13 -9 16 -20 3 -11 13 -20
21 -20 8 0 12 5 9 10 -3 6 -2 10 3 10 10 0 31 46 38 83 5 22 2 22 -14 -3z"/>
<path d="M2360 1310 c-14 -11 -30 -18 -37 -15 -6 2 -19 -5 -29 -16 -10 -11
-12 -19 -6 -19 7 0 12 4 12 10 0 5 8 9 18 8 9 -1 31 0 48 0 27 2 32 6 30 27
-1 30 -4 30 -36 5z"/>
<path d="M2200 1305 c-7 -9 -11 -17 -9 -20 3 -2 10 5 17 15 14 24 10 26 -8 5z"/>
<path d="M1925 1300 c3 -5 10 -10 16 -10 5 0 9 5 9 10 0 6 -7 10 -16 10 -8 0
-12 -4 -9 -10z"/>
<path d="M2100 1290 c0 -5 5 -10 10 -10 6 0 10 5 10 10 0 6 -4 10 -10 10 -5 0
-10 -4 -10 -10z"/>
<path d="M2253 1293 c-17 -6 -16 -23 1 -23 8 0 16 7 20 15 6 15 1 17 -21 8z"/>
<path d="M2410 1270 c0 -5 5 -10 10 -10 6 0 10 5 10 10 0 6 -4 10 -10 10 -5 0
-10 -4 -10 -10z"/>
<path d="M1865 1260 c3 -5 8 -10 11 -10 2 0 4 5 4 10 0 6 -5 10 -11 10 -5 0
-7 -4 -4 -10z"/>
<path d="M2266 1241 c-3 -5 1 -11 9 -14 9 -4 12 -1 8 9 -6 16 -10 17 -17 5z"/>
<path d="M2117 1209 c-21 -12 -22 -26 -2 -26 8 0 17 7 20 15 7 20 3 22 -18 11z"/>
<path d="M1920 1171 c0 -5 9 -7 20 -4 11 3 20 7 20 9 0 2 -9 4 -20 4 -11 0
-20 -4 -20 -9z"/>
<path d="M2180 1172 c0 -5 14 -9 30 -10 17 0 30 4 30 9 0 5 -13 9 -30 9 -16 0
-30 -4 -30 -8z"/>
<path d="M2610 1170 c0 -5 5 -10 10 -10 6 0 10 5 10 10 0 6 -4 10 -10 10 -5 0
-10 -4 -10 -10z"/>
<path d="M1855 1160 c3 -5 8 -10 11 -10 2 0 4 5 4 10 0 6 -5 10 -11 10 -5 0
-7 -4 -4 -10z"/>
<path d="M1280 1149 c0 -5 5 -7 10 -4 6 3 10 8 10 11 0 2 -4 4 -10 4 -5 0 -10
-5 -10 -11z"/>
<path d="M2450 1124 c0 -12 29 -34 44 -34 17 0 2 27 -19 37 -20 9 -25 8 -25
-3z"/>
<path d="M2145 1120 c-3 -5 1 -10 10 -10 9 0 13 5 10 10 -3 6 -8 10 -10 10 -2
0 -7 -4 -10 -10z"/>
<path d="M2590 1119 c0 -5 5 -7 10 -4 6 3 10 8 10 11 0 2 -4 4 -10 4 -5 0 -10
-5 -10 -11z"/>
<path d="M2615 1070 c-3 -5 1 -10 9 -10 9 0 16 5 16 10 0 6 -4 10 -9 10 -6 0
-13 -4 -16 -10z"/>
<path d="M1875 990 c-3 -5 1 -10 9 -10 9 0 16 5 16 10 0 6 -4 10 -9 10 -6 0
-13 -4 -16 -10z"/>
<path d="M1650 860 c0 -5 5 -10 10 -10 6 0 10 5 10 10 0 6 -4 10 -10 10 -5 0
-10 -4 -10 -10z"/>
<path d="M1710 700 c0 -5 5 -10 10 -10 6 0 10 5 10 10 0 6 -4 10 -10 10 -5 0
-10 -4 -10 -10z"/>
<path d="M1726 3523 c-9 -23 -7 -43 5 -43 6 0 8 7 5 15 -4 11 0 15 11 13 23
-4 27 19 4 25 -12 3 -22 -1 -25 -10z"/>
<path d="M1986 3529 c3 -5 12 -6 22 -3 14 5 15 4 2 -5 -8 -5 -11 -13 -8 -17 4
-3 19 3 34 15 l28 22 -41 -2 c-23 -2 -40 -6 -37 -10z"/>
<path d="M2080 3530 c0 -5 5 -10 10 -10 6 0 10 -4 10 -10 0 -14 -28 -12 -33 3
-3 9 -9 7 -24 -5 -21 -20 -53 -24 -53 -8 0 6 -4 10 -9 10 -5 0 -4 -11 2 -24 8
-16 16 -21 22 -15 16 16 26 10 15 -10 -15 -29 -12 -50 4 -28 11 14 15 15 19 5
4 -10 8 -10 16 2 15 21 13 30 -6 30 -26 0 -4 15 22 15 19 1 22 -2 13 -12 -6
-7 -7 -13 -3 -13 4 0 2 -7 -5 -15 -11 -13 -8 -15 14 -15 14 0 26 5 26 11 0 23
20 -5 31 -43 6 -23 17 -47 25 -55 20 -21 17 -46 -7 -61 -18 -12 -20 -11 -15 5
4 13 -2 22 -21 31 -35 16 -43 15 -43 -3 0 -9 9 -15 25 -15 14 0 25 -3 25 -7
-1 -14 -27 -43 -39 -43 -15 0 -14 17 2 23 8 3 6 9 -8 20 -17 13 -21 13 -28 1
-4 -8 -16 -14 -25 -14 -9 0 -24 -5 -32 -10 -12 -7 -12 -12 -2 -22 9 -9 12 -8
13 7 0 11 3 14 6 8 5 -14 35 -18 31 -5 -2 4 2 7 7 7 6 0 9 -5 7 -11 -4 -18 34
-27 58 -14 16 9 25 8 36 -1 8 -6 14 -8 14 -3 1 5 8 -3 16 -18 8 -16 21 -28 29
-28 20 0 19 10 -2 27 -17 12 -16 13 6 11 13 -2 29 -12 35 -22 6 -11 19 -28 29
-38 9 -10 17 -25 17 -34 0 -8 4 -13 9 -9 5 3 16 -3 23 -12 7 -10 30 -33 51
-50 22 -20 32 -33 22 -33 -8 0 -15 5 -15 10 0 6 -4 10 -9 10 -6 0 -9 -8 -8
-18 1 -13 8 -17 31 -14 35 3 62 -10 52 -26 -4 -7 -17 -7 -38 -1 -23 6 -34 5
-40 -4 -5 -9 11 -13 67 -17 51 -3 81 -11 95 -22 11 -10 24 -18 28 -18 5 0 26
-9 48 -19 22 -11 51 -23 65 -26 13 -3 31 -20 40 -38 11 -22 23 -32 38 -31 11
0 21 -3 21 -7 0 -14 71 -4 81 11 7 11 9 9 6 -10 -1 -14 -6 -30 -9 -36 -11 -18
2 -24 23 -11 10 6 19 22 19 34 0 26 38 42 51 22 4 -7 6 -16 3 -18 -3 -3 -9 1
-14 9 -8 13 -10 12 -10 -3 0 -10 -4 -16 -9 -12 -6 3 -9 -4 -8 -15 1 -22 13
-27 20 -7 3 9 9 9 25 0 18 -11 20 -10 17 20 l-3 32 89 0 c49 0 89 3 89 7 0 4
17 10 38 13 64 11 154 45 239 91 75 40 83 42 92 26 7 -12 10 75 11 281 l0 297
-730 0 c-480 0 -730 -3 -730 -10z m149 -274 c-10 -10 -59 -14 -59 -5 0 5 9 9
20 9 11 0 20 5 20 12 0 9 3 9 12 0 6 -6 10 -14 7 -16z m611 -421 c11 -13 10
-14 -4 -9 -9 3 -16 10 -16 15 0 13 6 11 20 -6z"/>
<path d="M1824 3511 c4 -7 2 -19 -5 -28 -11 -13 -11 -15 6 -12 23 5 27 40 6
47 -9 3 -11 0 -7 -7z"/>
<path d="M1886 3504 c-12 -31 3 -34 22 -4 10 16 10 20 -2 20 -8 0 -17 -7 -20
-16z"/>
<path d="M1770 3495 c0 -8 5 -15 10 -15 6 0 10 7 10 15 0 8 -4 15 -10 15 -5 0
-10 -7 -10 -15z"/>
<path d="M1935 3480 c-3 -5 -1 -10 4 -10 6 0 11 5 11 10 0 6 -2 10 -4 10 -3 0
-8 -4 -11 -10z"/>
<path d="M1960 3445 c0 -8 9 -15 20 -15 24 0 27 15 4 24 -22 9 -24 8 -24 -9z"/>
<path d="M1750 3440 c0 -5 5 -10 10 -10 6 0 10 5 10 10 0 6 -4 10 -10 10 -5 0
-10 -4 -10 -10z"/>
<path d="M1903 3427 c5 -15 37 -22 37 -9 0 5 -9 12 -21 15 -13 3 -19 1 -16 -6z"/>
<path d="M2034 3376 c2 -31 0 -56 -5 -56 -5 0 -9 -7 -9 -15 0 -20 6 -19 30 5
22 22 25 37 9 42 -5 2 -11 18 -11 36 -1 18 -5 35 -9 38 -5 3 -7 -20 -5 -50z"/>
<path d="M1860 3410 c0 -5 7 -10 15 -10 8 0 15 5 15 10 0 6 -7 10 -15 10 -8 0
-15 -4 -15 -10z"/>
<path d="M2072 3403 c-16 -30 -15 -43 3 -43 9 0 30 -7 47 -16 22 -11 28 -12
22 -2 -5 7 -7 26 -5 42 2 26 0 28 -23 24 -14 -3 -27 0 -29 6 -2 6 -9 1 -15
-11z"/>
<path d="M1975 3390 c3 -5 8 -10 11 -10 2 0 4 5 4 10 0 6 -5 10 -11 10 -5 0
-7 -4 -4 -10z"/>
<path d="M1870 3380 c0 -6 7 -10 15 -10 8 0 15 2 15 4 0 2 -7 6 -15 10 -8 3
-15 1 -15 -4z"/>
<path d="M1840 3360 c0 -5 5 -10 11 -10 5 0 7 5 4 10 -3 6 -8 10 -11 10 -2 0
-4 -4 -4 -10z"/>
<path d="M1992 3363 c-6 -2 -10 -9 -7 -13 3 -5 -3 -14 -14 -19 -15 -9 -18 -17
-12 -38 4 -15 13 -29 21 -31 9 -3 11 1 7 12 -4 9 -2 16 3 16 6 0 10 7 10 16 0
14 -3 14 -15 4 -8 -7 -15 -8 -15 -2 0 18 25 33 37 21 8 -8 13 -8 18 0 3 6 -1
14 -9 17 -9 3 -13 10 -10 15 6 10 5 10 -14 2z"/>
<path d="M1940 3350 c0 -5 5 -10 10 -10 6 0 10 5 10 10 0 6 -4 10 -10 10 -5 0
-10 -4 -10 -10z"/>
<path d="M1875 3330 c3 -5 8 -10 11 -10 2 0 4 5 4 10 0 6 -5 10 -11 10 -5 0
-7 -4 -4 -10z"/>
<path d="M1915 3300 c3 -5 10 -10 16 -10 5 0 9 5 9 10 0 6 -7 10 -16 10 -8 0
-12 -4 -9 -10z"/>
<path d="M1743 3285 c0 -8 4 -15 9 -15 4 0 8 4 8 9 0 6 -4 12 -8 15 -5 3 -9
-1 -9 -9z"/>
<path d="M1860 3270 c0 -5 5 -10 10 -10 6 0 10 5 10 10 0 6 -4 10 -10 10 -5 0
-10 -4 -10 -10z"/>
<path d="M1810 3255 c0 -8 4 -15 9 -15 5 0 14 7 21 15 10 13 9 15 -9 15 -12 0
-21 -6 -21 -15z"/>
<path d="M1930 3260 c0 -5 5 -10 10 -10 6 0 10 5 10 10 0 6 -4 10 -10 10 -5 0
-10 -4 -10 -10z"/>
<path d="M1960 3238 c0 -4 9 -8 20 -8 11 0 20 4 20 9 0 6 -9 9 -20 8 -11 -1
-20 -5 -20 -9z"/>
<path d="M1910 3230 c0 -5 5 -10 10 -10 6 0 10 5 10 10 0 6 -4 10 -10 10 -5 0
-10 -4 -10 -10z"/>
<path d="M2050 3230 c0 -5 5 -10 10 -10 6 0 10 5 10 10 0 6 -4 10 -10 10 -5 0
-10 -4 -10 -10z"/>
<path d="M2013 3216 c-9 -11 -8 -15 10 -20 26 -6 31 -2 24 19 -8 18 -18 19
-34 1z"/>
<path d="M1877 3191 c-15 -26 -15 -29 -1 -35 25 -10 32 -7 39 14 7 23 25 27
25 5 0 -8 4 -15 10 -15 5 0 7 7 4 15 -4 8 1 17 10 21 20 8 21 24 1 24 -8 0
-15 -8 -16 -17 0 -11 -3 -13 -6 -6 -3 10 -10 10 -25 2 -13 -7 -18 -7 -14 -1 3
6 3 13 -2 16 -5 3 -16 -8 -25 -23z"/>
<path d="M2105 3210 c-3 -5 -1 -10 4 -10 6 0 11 5 11 10 0 6 -2 10 -4 10 -3 0
-8 -4 -11 -10z"/>
<path d="M2165 3200 c-3 -5 1 -10 9 -10 9 0 16 5 16 10 0 6 -4 10 -9 10 -6 0
-13 -4 -16 -10z"/>
<path d="M2027 3155 c-9 -13 -13 -26 -8 -30 5 -3 12 4 16 15 7 23 16 25 33 8
9 -9 12 -9 12 0 0 7 8 12 17 12 14 0 15 2 4 13 -11 9 -14 9 -18 0 -3 -9 -10
-10 -21 -4 -13 7 -22 3 -35 -14z"/>
<path d="M2210 3170 c0 -5 5 -10 10 -10 6 0 10 5 10 10 0 6 -4 10 -10 10 -5 0
-10 -4 -10 -10z"/>
<path d="M1957 3153 c-14 -4 -17 -11 -13 -26 3 -12 6 -26 6 -31 0 -4 7 -5 16
-2 9 3 20 3 26 0 6 -4 27 -8 46 -9 20 -1 38 -7 40 -14 2 -6 8 -11 14 -11 6 0
8 7 4 15 -4 10 1 15 15 15 11 0 18 4 14 10 -3 5 -22 9 -43 8 -78 -1 -112 2
-112 12 0 6 7 10 15 10 9 0 12 6 9 15 -4 8 -9 14 -13 14 -3 -1 -14 -3 -24 -6z"/>
<path d="M2105 3130 c3 -5 8 -10 11 -10 2 0 4 5 4 10 0 6 -5 10 -11 10 -5 0
-7 -4 -4 -10z"/>
<path d="M2202 3128 c3 -7 -2 -19 -9 -27 -8 -7 -12 -20 -9 -27 3 -7 1 -16 -4
-19 -6 -4 -10 -11 -10 -18 0 -8 3 -8 12 1 8 8 16 8 32 0 19 -10 20 -10 7 6
-11 13 -11 20 -3 28 7 7 12 20 12 30 0 10 5 18 10 18 6 0 10 5 10 10 0 6 -12
10 -26 10 -16 0 -24 -5 -22 -12z"/>
<path d="M2256 3109 c-10 -17 -15 -33 -12 -37 4 -3 9 4 13 16 3 12 12 22 19
22 8 0 14 7 14 15 0 24 -14 17 -34 -16z"/>
<path d="M2165 3110 c-3 -5 -2 -10 4 -10 5 0 13 5 16 10 3 6 2 10 -4 10 -5 0
-13 -4 -16 -10z"/>
<path d="M2290 3070 c0 -5 7 -10 15 -10 8 0 15 5 15 10 0 6 -7 10 -15 10 -8 0
-15 -4 -15 -10z"/>
<path d="M2316 3042 c-3 -5 -19 -7 -36 -4 -33 5 -42 -13 -10 -21 28 -7 60 3
60 19 0 16 -6 18 -14 6z"/>
<path d="M1950 3030 c0 -5 7 -10 15 -10 8 0 15 5 15 10 0 6 -7 10 -15 10 -8 0
-15 -4 -15 -10z"/>
<path d="M2045 3020 c-3 -5 1 -10 9 -10 9 0 16 5 16 10 0 6 -4 10 -9 10 -6 0
-13 -4 -16 -10z"/>
<path d="M2348 3023 c7 -3 16 -2 19 1 4 3 -2 6 -13 5 -11 0 -14 -3 -6 -6z"/>
<path d="M2340 2990 c0 -5 7 -10 16 -10 8 0 12 5 9 10 -3 6 -10 10 -16 10 -5
0 -9 -4 -9 -10z"/>
<path d="M2452 2940 c23 -14 73 -19 90 -9 7 5 11 9 8 9 -3 0 -30 3 -60 6 -41
4 -51 2 -38 -6z"/>
<path d="M3475 2920 c-7 -12 2 -30 16 -30 12 0 12 27 0 35 -5 3 -12 1 -16 -5z"/>
<path d="M2570 2885 c7 -8 9 -15 4 -15 -14 0 19 -20 34 -20 6 0 12 7 12 15 0
8 -7 15 -16 15 -8 0 -12 5 -9 10 3 6 -4 10 -16 10 -18 0 -19 -2 -9 -15z"/>
<path d="M2632 2881 c7 -11 16 -17 20 -14 10 5 -10 33 -23 33 -5 0 -4 -9 3
-19z"/>
<path d="M3440 2886 c0 -9 5 -16 10 -16 6 0 10 4 10 9 0 6 -4 13 -10 16 -5 3
-10 -1 -10 -9z"/>
<path d="M2680 2860 c0 -5 7 -10 15 -10 8 0 15 5 15 10 0 6 -7 10 -15 10 -8 0
-15 -4 -15 -10z"/>
<path d="M3471 2844 c0 -11 3 -14 6 -6 3 7 2 16 -1 19 -3 4 -6 -2 -5 -13z"/>
<path d="M3313 2835 c4 -8 2 -17 -4 -20 -13 -9 -1 -25 19 -25 12 0 13 3 5 8
-9 6 -8 12 7 24 11 10 20 12 22 6 2 -6 9 -3 17 6 12 14 9 16 -29 16 -33 0 -41
-3 -37 -15z"/>
<path d="M2670 2816 c0 -9 6 -13 14 -10 11 4 13 0 9 -15 -4 -17 -2 -20 11 -15
28 11 16 46 -16 52 -11 2 -18 -3 -18 -12z"/>
<path d="M2720 2820 c0 -5 5 -10 11 -10 5 0 7 5 4 10 -3 6 -8 10 -11 10 -2 0
-4 -4 -4 -10z"/>
<path d="M3255 2820 c3 -5 10 -10 16 -10 5 0 9 5 9 10 0 6 -7 10 -16 10 -8 0
-12 -4 -9 -10z"/>
<path d="M2990 2795 c0 -8 5 -15 10 -15 6 0 10 7 10 15 0 8 -4 15 -10 15 -5 0
-10 -7 -10 -15z"/>
<path d="M3360 2800 c-8 -5 -11 -12 -7 -16 4 -4 15 0 24 9 18 18 8 23 -17 7z"/>
<path d="M2735 2790 c-3 -5 -3 -10 2 -10 4 0 2 -4 -6 -9 -7 -5 -9 -11 -4 -14
6 -4 15 5 21 18 11 24 0 36 -13 15z"/>
<path d="M2810 2775 c-11 -13 -9 -15 15 -15 16 0 25 5 23 12 -7 19 -24 20 -38
3z"/>
<path d="M3510 2780 c0 -5 4 -10 9 -10 6 0 13 5 16 10 3 6 -1 10 -9 10 -9 0
-16 -4 -16 -10z"/>
<path d="M3340 2750 c0 -5 7 -10 15 -10 8 0 15 5 15 10 0 6 -7 10 -15 10 -8 0
-15 -4 -15 -10z"/>
<path d="M2840 2740 c-23 -14 -8 -19 30 -10 19 4 33 9 30 10 -22 7 -48 8 -60
0z"/>
<path d="M2910 2740 c0 -5 5 -10 11 -10 5 0 7 5 4 10 -3 6 -8 10 -11 10 -2 0
-4 -4 -4 -10z"/>
<path d="M3520 2720 c0 -5 5 -10 10 -10 6 0 10 5 10 10 0 6 -4 10 -10 10 -5 0
-10 -4 -10 -10z"/>
<path d="M3113 2707 c-6 -10 18 -17 42 -13 11 3 24 5 29 5 5 1 6 4 3 8 -10 9
-68 10 -74 0z"/>
<path d="M2772 2699 c2 -6 8 -10 13 -10 5 0 11 4 13 10 2 6 -4 11 -13 11 -9 0
-15 -5 -13 -11z"/>
<path d="M2815 2700 c-4 -6 10 -10 35 -10 25 0 39 4 35 10 -3 6 -19 10 -35 10
-16 0 -32 -4 -35 -10z"/>
<path d="M2900 2700 c0 -5 5 -10 10 -10 6 0 10 5 10 10 0 6 -4 10 -10 10 -5 0
-10 -4 -10 -10z"/>
<path d="M3050 2700 c0 -5 7 -10 15 -10 8 0 15 5 15 10 0 6 -7 10 -15 10 -8 0
-15 -4 -15 -10z"/>
<path d="M826 2664 c-3 -9 -6 -17 -6 -18 0 -1 9 -2 20 -3 11 -1 20 0 20 2 0
11 -13 35 -20 35 -4 0 -11 -7 -14 -16z"/>
<path d="M1950 2660 c0 -15 5 -20 18 -18 9 2 17 10 17 18 0 8 -8 16 -17 18
-13 2 -18 -3 -18 -18z"/>
<path d="M2998 2661 c-10 -10 -18 -21 -18 -25 0 -8 98 -1 107 8 8 8 -8 27 -18
21 -5 -4 -9 -1 -9 4 0 18 -18 12 -23 -6 -4 -17 -5 -17 -6 0 -1 21 -11 21 -33
-2z"/>
<path d="M3220 2664 c0 -8 5 -12 10 -9 6 4 8 11 5 16 -9 14 -15 11 -15 -7z"/>
<path d="M3250 2670 c0 -5 7 -10 16 -10 8 0 12 5 9 10 -3 6 -10 10 -16 10 -5
0 -9 -4 -9 -10z"/>
<path d="M2843 2663 c-7 -2 -13 -11 -13 -19 0 -9 3 -13 8 -11 4 3 13 -1 19 -9
8 -8 9 -15 3 -19 -18 -11 -10 -25 14 -25 19 0 23 -4 19 -20 -7 -25 15 -34 51
-20 19 7 33 7 40 1 14 -11 45 4 33 16 -5 4 -12 1 -16 -6 -7 -11 -11 -10 -19 4
-6 12 -14 15 -23 9 -17 -10 -50 -13 -43 -3 2 4 19 11 36 14 43 10 78 45 45 45
-7 0 -18 -5 -25 -12 -14 -14 -52 -18 -52 -6 0 4 -9 8 -19 8 -14 0 -21 8 -23
27 -3 27 -14 35 -35 26z"/>
<path d="M3470 2650 c-8 -5 -12 -12 -9 -15 4 -3 12 1 19 10 14 17 11 19 -10 5z"/>
<path d="M3310 2624 c0 -11 -6 -14 -20 -9 -11 3 -20 2 -20 -4 0 -17 20 -23 36
-10 13 10 17 10 24 -1 4 -7 17 -11 29 -7 12 3 21 0 21 -6 0 -7 4 -7 12 1 16
16 -5 32 -39 32 -13 0 -23 5 -23 10 0 6 -4 10 -10 10 -5 0 -10 -7 -10 -16z"/>
<path d="M3475 2620 c-3 -5 -12 -7 -19 -4 -8 3 -17 0 -22 -7 -4 -7 -3 -14 4
-17 6 -2 8 -10 5 -18 -3 -9 1 -14 12 -14 11 0 15 5 11 15 -3 9 0 15 9 15 8 0
15 6 15 13 0 9 3 8 9 -2 5 -8 14 -10 21 -6 10 6 9 11 -5 22 -22 15 -32 16 -40
3z"/>
<path d="M3023 2602 c-19 -19 -1 -41 20 -24 8 7 26 13 41 14 14 1 26 8 26 15
0 17 -68 14 -87 -5z"/>
<path d="M3166 2601 c-4 -5 -3 -16 0 -24 3 -8 1 -18 -5 -22 -6 -3 -11 -10 -11
-16 0 -16 26 -10 45 11 17 19 17 20 1 20 -13 0 -16 5 -11 20 6 20 -9 28 -19
11z"/>
<path d="M3200 2595 c0 -8 5 -15 10 -15 6 0 10 7 10 15 0 8 -4 15 -10 15 -5 0
-10 -7 -10 -15z"/>
<path d="M3230 2595 c0 -8 4 -15 10 -15 5 0 7 7 4 15 -4 8 -8 15 -10 15 -2 0
-4 -7 -4 -15z"/>
<path d="M2700 2559 c0 -5 5 -7 10 -4 6 3 10 8 10 11 0 2 -4 4 -10 4 -5 0 -10
-5 -10 -11z"/>
<path d="M3286 2555 c-3 -8 -1 -15 4 -15 13 0 22 18 11 24 -5 3 -11 -1 -15 -9z"/>
<path d="M3030 2550 c0 -5 4 -10 9 -10 6 0 13 5 16 10 3 6 -1 10 -9 10 -9 0
-16 -4 -16 -10z"/>
<path d="M3070 2551 c0 -17 18 -21 24 -6 3 9 0 15 -9 15 -8 0 -15 -4 -15 -9z"/>
<path d="M3227 2553 c-10 -9 -9 -23 1 -23 5 0 17 7 28 15 19 14 19 14 -2 15
-11 0 -24 -3 -27 -7z"/>
<path d="M3325 2550 c-3 -6 5 -10 19 -10 14 0 28 5 31 10 3 6 -5 10 -19 10
-14 0 -28 -4 -31 -10z"/>
<path d="M3420 2550 c0 -5 7 -10 16 -10 8 0 12 5 9 10 -3 6 -10 10 -16 10 -5
0 -9 -4 -9 -10z"/>
<path d="M2485 2520 c-3 -5 -1 -10 4 -10 6 0 11 5 11 10 0 6 -2 10 -4 10 -3 0
-8 -4 -11 -10z"/>
<path d="M2550 2514 c0 -9 5 -14 12 -12 18 6 21 28 4 28 -9 0 -16 -7 -16 -16z"/>
<path d="M3405 2519 c-4 -6 -5 -13 -2 -16 7 -7 27 6 27 18 0 12 -17 12 -25 -2z"/>
<path d="M3445 2501 c-14 -29 -14 -31 1 -31 10 0 14 6 11 14 -3 7 0 19 6 25 6
6 8 13 5 17 -4 3 -14 -8 -23 -25z"/>
<path d="M3340 2509 c0 -5 5 -7 10 -4 6 3 10 8 10 11 0 2 -4 4 -10 4 -5 0 -10
-5 -10 -11z"/>
<path d="M3180 2475 c0 -8 4 -15 9 -15 5 0 14 7 21 15 10 13 9 15 -9 15 -12 0
-21 -6 -21 -15z"/>
<path d="M3235 2460 c-3 -5 -1 -10 4 -10 6 0 11 5 11 10 0 6 -2 10 -4 10 -3 0
-8 -4 -11 -10z"/>
<path d="M3280 2460 c0 -5 4 -10 9 -10 6 0 13 5 16 10 3 6 -1 10 -9 10 -9 0
-16 -4 -16 -10z"/>
<path d="M2892 2436 c7 -8 15 -12 17 -11 5 6 -10 25 -20 25 -5 0 -4 -6 3 -14z"/>
<path d="M2985 2431 c-3 -5 -1 -12 4 -15 5 -3 11 1 15 9 6 16 -9 21 -19 6z"/>
<path d="M2680 2390 c0 -5 7 -10 15 -10 8 0 15 5 15 10 0 6 -7 10 -15 10 -8 0
-15 -4 -15 -10z"/>
<path d="M2787 2383 c-12 -12 -7 -22 8 -17 8 4 15 10 15 15 0 11 -14 12 -23 2z"/>
<path d="M2520 2369 c0 -5 5 -7 10 -4 6 3 10 8 10 11 0 2 -4 4 -10 4 -5 0 -10
-5 -10 -11z"/>
<path d="M2811 2280 c6 -16 15 -30 21 -30 6 0 8 7 4 15 -3 8 -1 15 3 15 5 0
11 -6 14 -12 2 -7 8 -10 12 -6 10 9 -14 40 -25 33 -5 -3 -11 -1 -15 5 -14 22
-23 8 -14 -20z"/>
<path d="M2795 2200 c-17 -7 -17 -9 -2 -9 9 -1 20 -1 24 -2 4 0 9 4 11 10 4
13 -5 13 -33 1z"/>
<path d="M3000 2039 c0 -5 5 -7 10 -4 6 3 10 8 10 11 0 2 -4 4 -10 4 -5 0 -10
-5 -10 -11z"/>
<path d="M2928 2003 c7 -3 16 -2 19 1 4 3 -2 6 -13 5 -11 0 -14 -3 -6 -6z"/>
</g>
</svg>
